<svg xmlns="http://www.w3.org/2000/svg" viewBox="0 0 164.1 60.06"><defs><style>.cls-1{fill:#eb6100;}.cls-2{fill:#231815;}</style></defs><title>資產 3</title><g id="圖層_2" data-name="圖層 2"><g id="圖層_1-2" data-name="圖層 1"><path class="cls-1" d="M24.05,52l-3.7,3.81L16.68,52c-6.85.4-11.91,1.85-11.91,3.56,0,2,7.12,3.69,15.9,3.69s15.89-1.64,15.89-3.68C36.56,53.82,31.2,52.34,24.05,52Z"/><path class="cls-1" d="M27.58,20.29a6.69,6.69,0,1,1-6.69-6.89A6.78,6.78,0,0,1,27.58,20.29Z"/><path class="cls-1" d="M41.78,21.51C41.79,9.64,32.44,0,20.9,0S0,9.62,0,21.49A21.74,21.74,0,0,0,5.41,35.93h0c.08.09.16.19.25.28l.39.41L20.46,52.29l7.92-8.15h0S12.11,27.59,12,27.44a11.74,11.74,0,0,1-2.41-7.16A11.44,11.44,0,0,1,20.89,8.7,11.43,11.43,0,0,1,32.15,20.29,11.43,11.43,0,0,1,20.91,31.87l9.73,9.88,0,0,4.24-4.35c.51-.48,1-1,1.45-1.49h0A21.75,21.75,0,0,0,41.78,21.51Z"/><path class="cls-2" d="M61.18,41.54H59.85a.57.57,0,0,0-.56.57v8.25a8.87,8.87,0,0,1-.12,2,2.69,2.69,0,0,1-.49,1,2.24,2.24,0,0,1-1.84.87,2.84,2.84,0,0,1-1.27-.32,2.17,2.17,0,0,1-1.26-1.8c0-.17-.05-.62-.05-1.75V42.11a.59.59,0,0,0-.57-.58H52.38a.57.57,0,0,0-.56.58v8.25a11,11,0,0,0,.27,3A4.32,4.32,0,0,0,54,55.91a5.5,5.5,0,0,0,2.92.79,4.52,4.52,0,0,0,2.89-1,4.78,4.78,0,0,0,1.65-2.49,10.89,10.89,0,0,0,.3-2.87V42.11A.57.57,0,0,0,61.18,41.54Z"/><path class="cls-2" d="M69.41,44.84a5,5,0,0,0-3.33,1.21v-.37a.57.57,0,0,0-.56-.59H64.25a.57.57,0,0,0-.56.59v13.8a.58.58,0,0,0,.56.58h1.27a.58.58,0,0,0,.56-.58v-4a5.19,5.19,0,0,0,3.36,1.19,5.26,5.26,0,0,0,4-1.76,6.14,6.14,0,0,0,0-8.3A5.36,5.36,0,0,0,69.41,44.84Zm-.11,2.42a3.16,3.16,0,0,1,1.67.46A3.22,3.22,0,0,1,72.18,49a3.61,3.61,0,0,1,0,3.51A3.47,3.47,0,0,1,71,53.79a3,3,0,0,1-1.65.47,3.31,3.31,0,0,1-1.69-.46,3.2,3.2,0,0,1-1.64-3,3.53,3.53,0,0,1,1-2.52A3.06,3.06,0,0,1,69.3,47.26Z"/><path class="cls-2" d="M77.93,41.2H76.65a.57.57,0,0,0-.56.58v14a.59.59,0,0,0,.57.59h1.27a.58.58,0,0,0,.56-.59v-14A.57.57,0,0,0,77.93,41.2Z"/><path class="cls-2" d="M90.32,45.1H89.07a.57.57,0,0,0-.56.59v.36a5,5,0,0,0-3.35-1.21,5.34,5.34,0,0,0-4,1.72,6.14,6.14,0,0,0,0,8.31,5.4,5.4,0,0,0,7.37.57v.35a.57.57,0,0,0,.57.58h1.25a.57.57,0,0,0,.56-.58V45.69A.58.58,0,0,0,90.32,45.1Zm-3.38,8.71a3.3,3.3,0,0,1-1.68.46,3,3,0,0,1-1.64-.47,3.37,3.37,0,0,1-1.22-1.29,3.56,3.56,0,0,1-.46-1.76A3.52,3.52,0,0,1,82.4,49a3,3,0,0,1,2.87-1.74,3.14,3.14,0,0,1,2.37,1,3.52,3.52,0,0,1,.94,2.52,3.66,3.66,0,0,1-.43,1.78A3.07,3.07,0,0,1,86.94,53.81Z"/><path class="cls-2" d="M100.35,45.5a4,4,0,0,0-2.23-.65A4.66,4.66,0,0,0,95,46v-.33a.57.57,0,0,0-.57-.58H93.16a.56.56,0,0,0-.56.58v10.1a.57.57,0,0,0,.56.58h1.27a.57.57,0,0,0,.57-.58v-3.7a13,13,0,0,1,.16-2.6,3.13,3.13,0,0,1,1-1.64,2.56,2.56,0,0,1,1.68-.63,1.75,1.75,0,0,1,1.92,1.56A11.21,11.21,0,0,1,99.9,51v4.81a.58.58,0,0,0,.56.59h1.27a.57.57,0,0,0,.56-.59V50.6a9,9,0,0,0-.45-3.29A3.9,3.9,0,0,0,100.35,45.5Z"/><path class="cls-2" d="M118,41.56h-9.92a.57.57,0,0,0-.57.57v1.34a.57.57,0,0,0,.57.58h3.84V55.8a.58.58,0,0,0,.56.58h1.35a.58.58,0,0,0,.57-.58V44.06H118a.58.58,0,0,0,.57-.58V42.14A.57.57,0,0,0,118,41.56Z"/><path class="cls-2" d="M125.34,45.63a.59.59,0,0,0-.27-.35,2.78,2.78,0,0,0-1.39-.42,3,3,0,0,0-2,.79.57.57,0,0,0-.56-.53h-1.3a.57.57,0,0,0-.57.58V55.8a.57.57,0,0,0,.56.58h1.3a.59.59,0,0,0,.57-.59V52.39a14.6,14.6,0,0,1,.22-3.33c.43-1.58,1.09-1.77,1.56-1.77a1.26,1.26,0,0,1,.44.13.59.59,0,0,0,.22,0,.55.55,0,0,0,.48-.28l.66-1.1A.67.67,0,0,0,125.34,45.63Z"/><path class="cls-2" d="M135.65,45.12h-1.26a.57.57,0,0,0-.56.59v.36a5,5,0,0,0-3.34-1.21,5.37,5.37,0,0,0-4,1.72,5.86,5.86,0,0,0-1.63,4.14,5.92,5.92,0,0,0,1.6,4.17,5.26,5.26,0,0,0,4,1.76,5.2,5.2,0,0,0,3.37-1.19v.35a.58.58,0,0,0,.57.58h1.25a.58.58,0,0,0,.57-.58V45.71A.57.57,0,0,0,135.65,45.12Zm-3.38,8.71a3.3,3.3,0,0,1-1.68.46,3,3,0,0,1-1.65-.47,3.37,3.37,0,0,1-1.22-1.29,3.55,3.55,0,0,1-.45-1.76,3.62,3.62,0,0,1,.45-1.75,3.06,3.06,0,0,1,2.87-1.74,3.13,3.13,0,0,1,2.37,1,3.53,3.53,0,0,1,.95,2.52,3.66,3.66,0,0,1-.43,1.78A3.13,3.13,0,0,1,132.27,53.83Z"/><path class="cls-2" d="M147.55,45.39a.56.56,0,0,0-.47-.26h-1.35a.56.56,0,0,0-.52.34l-2.75,6.2-2.77-6.21a.56.56,0,0,0-.51-.33h-1.34a.58.58,0,0,0-.51.83l4.51,10.11a.57.57,0,0,0,.51.33h.23a.56.56,0,0,0,.51-.33L147.59,46A.59.59,0,0,0,147.55,45.39Z"/><path class="cls-2" d="M153.07,44.87A5.18,5.18,0,0,0,148.74,47a6.09,6.09,0,0,0-1.27,3.78A5.82,5.82,0,0,0,149.08,55a5.44,5.44,0,0,0,4.06,1.68,5.75,5.75,0,0,0,2.14-.38,5.85,5.85,0,0,0,3.06-3,.59.59,0,0,0-.24-.78L157,52a.48.48,0,0,0-.26-.06.57.57,0,0,0-.48.27,5.43,5.43,0,0,1-1,1.3,3.3,3.3,0,0,1-2.29.84,2.82,2.82,0,0,1-2.25-1,3.38,3.38,0,0,1-.83-1.85h8.2a.54.54,0,0,0,.4-.17.59.59,0,0,0,.17-.42,6.24,6.24,0,0,0-1.2-3.8A5.33,5.33,0,0,0,153.07,44.87ZM156,49.16h-5.71a2.91,2.91,0,0,1,2.82-1.86,3.29,3.29,0,0,1,1.44.32A2.86,2.86,0,0,1,156,49.16Z"/><path class="cls-2" d="M161.39,41.23h-1.27a.57.57,0,0,0-.56.58v14a.58.58,0,0,0,.56.58h1.28a.57.57,0,0,0,.56-.58v-14A.59.59,0,0,0,161.39,41.23Z"/><path class="cls-1" d="M129.78,35.57a2,2,0,0,0-.79-.8,2.67,2.67,0,0,0-.73-.27,1.5,1.5,0,0,0-.61,1.71l0,.11-.11,0a7.16,7.16,0,0,1-1.23.08c-.8,0-1.74-.06-2.6-.12a20.93,20.93,0,0,0-2.48-.07,4.8,4.8,0,0,1-1.74-.18,1.71,1.71,0,0,0,.58,1.1c.84.49,2.43-.34,3.38-.08.21,0,1.94.1,2.21.09.64,0,1.27.08,1.9.09a3.81,3.81,0,0,0,2-.27C130.12,36.68,130,36,129.78,35.57Z"/><path class="cls-1" d="M94.44,35.74a3.32,3.32,0,0,0-1.3.41,2.69,2.69,0,0,0-.32.19,1.76,1.76,0,0,1-.92.35h0a6.08,6.08,0,0,1-.87-.11,3.49,3.49,0,0,1-1.42-.52c-.9-.66-.82-2-.76-3.17,0-.18,0-.36,0-.52a6.85,6.85,0,0,0-.35-2.55l-.14.07c-.69.31-.51,1.6-.44,2.19a11.82,11.82,0,0,0,.69,3,8.43,8.43,0,0,0,1.16,2.13c.35.1,3.68,0,4.9.06a.32.32,0,0,0,.31-.16A1,1,0,0,0,94.44,35.74Z"/><path class="cls-1" d="M121.25,36a21.71,21.71,0,0,1,2.5.08,21.22,21.22,0,0,0,3.69.06,1.7,1.7,0,0,1,.54-1.71h-.27a5.76,5.76,0,0,1-2.74-.56.15.15,0,0,0,0,.06c0,.12-.1.38-.26.39s-.3,0-.32-.16a1.68,1.68,0,0,1,.08-.62,3.58,3.58,0,0,1-.34-.33c-.15.26-.34.51-.53.42s-.25-.13-.2-.28a2.86,2.86,0,0,1,.4-.64,3,3,0,0,1-.2-.57l-.14.16a2.24,2.24,0,0,1-.38.31c-.17.1-.48,0-.4-.26a1.52,1.52,0,0,1,.49-.52l.3-.23a.5.5,0,0,1,.09-.6c.24-.23.65-.08.88-.33a.81.81,0,0,0,.24-.52.68.68,0,0,0-.42-.58,2.16,2.16,0,0,0-1.37.21c.53-2.32,1.19-5.19,1.27-5.43.25-.74-.4-1.1-.81-1.31l-12.78-6.59a.09.09,0,0,1,0-.05.05.05,0,0,1,0,0h13.44a1,1,0,0,0,1-.93s0-.06,0-.08V12.63a.19.19,0,0,0,0-.08,1,1,0,0,0-1-.94H109.73l-.06,0a.16.16,0,0,1-.06-.09V7.21a.13.13,0,0,0,0-.06.24.24,0,0,1,0-.11.12.12,0,0,1,.11-.06h12.69a1,1,0,0,0,.94-1V3.27a1,1,0,0,0-.94-1h-.07l-30.77,0a1,1,0,0,0-1,1,.22.22,0,0,0,0,.08V5.91a.2.2,0,0,0,0,.07,1,1,0,0,0,.87,1h12.91a.13.13,0,0,1,.11.06s0,.06,0,.11v4.31h0a.18.18,0,0,1-.06.12l-.07,0H90a1,1,0,0,0-.94,1v2.78a1,1,0,0,0,1,1h13.75a.3.3,0,0,1,.16.05.37.37,0,0,1,0,.23s0,0,0,.06L101.83,26l-.09.07h0l-9.48,1.84c-.2-.39-.46-.87-.74-.95a.33.33,0,0,0-.32.08,1,1,0,0,0-.23.65c0,.13.11.66,0,.75a12.23,12.23,0,0,1-2.32,1.29A7.29,7.29,0,0,1,89,32.39c0,.16,0,.33,0,.52,0,1.07-.13,2.4.69,3a3.27,3.27,0,0,0,1.34.48,4.14,4.14,0,0,0,.87.1,1.63,1.63,0,0,0,.81-.32,2.08,2.08,0,0,1,.35-.2,3.59,3.59,0,0,1,1-.38,2.48,2.48,0,0,1-1.46-1.75,3,3,0,0,1-.54.32c-.11.05-.37.18-.48.05s-.15-.26-.06-.36a2.79,2.79,0,0,1,1-.52,3,3,0,0,1,0-.43c-.28.08-1,.29-1.11,0,0-.14,0-.29.11-.34a3.61,3.61,0,0,1,1.09-.12c.06-.21.12-.4.17-.53h-.37a2.66,2.66,0,0,1-.49-.1c-.19-.07-.26-.41,0-.49a1.52,1.52,0,0,1,.73.05l.37.08a.55.55,0,0,1,.55-.32c.33,0,.47.46.81.48a.7.7,0,0,0,.8-.87,1.3,1.3,0,0,0-.14-.26l9.6-.2a1.08,1.08,0,0,0,.54-.48s0,0,0,0l2.71-7.8a.15.15,0,0,1,.11-.1h0a.48.48,0,0,1,.24.08l11,3.22c.12.07.33.07.31.37,0,.11.22,2.95.42,4.66a1.38,1.38,0,0,0-.88.06.29.29,0,0,0-.12.29.86.86,0,0,0,.34.54c.09.08.57.29.61.41a4.13,4.13,0,0,1-.3,1.82,5.46,5.46,0,0,0-.2,2.41s0,.08,0,.14A4.57,4.57,0,0,0,121.25,36ZM91.33,30.74a.78.78,0,0,1-.92.61.79.79,0,0,1-.58-1,.77.77,0,0,1,.92-.6A.8.8,0,0,1,91.33,30.74Zm29.49,1.66a.8.8,0,0,1,1.09.11.72.72,0,0,1-.12,1,.78.78,0,0,1-1.08-.11A.71.71,0,0,1,120.82,32.4Z"/><path class="cls-1" d="M163.86,2.6a1,1,0,0,0-.67-.36h0l-35,0h0a1.09,1.09,0,0,0-1.08,1.15V5.84a.34.34,0,0,0,0,.1,1.07,1.07,0,0,0,1.06,1h13c.26,0,.26.17.26.25v28.8a1,1,0,0,0,.31.7,1,1,0,0,0,.67.29h3.12a1,1,0,0,0,1-1l0-20.19,12.64,9.72,0,0a1.07,1.07,0,0,0,.56.16.81.81,0,0,0,.48-.13,1,1,0,0,0,.51-.91v-4a1.1,1.1,0,0,0-.38-.78l0,0L147.1,10.07A1.44,1.44,0,0,1,146.54,9V7.22c0-.22.09-.22.15-.22h16.46a1,1,0,0,0,.95-1V3.25A1,1,0,0,0,163.86,2.6Z"/><path class="cls-1" d="M86.77,35.49l-.49-1c-1.45-2.83-2.57-5.09-3.32-6.71s-1.52-3.22-2.23-4.65h0s0-.07,0-.09v0s0-.05.07-.07l4.77-2.34a.36.36,0,0,0,.16-.14,1,1,0,0,0,.07-1.15h0l0,0L84.1,16.38h0c0-.07-.1-.19-.1-.19h0a1,1,0,0,0-.83-.46,1.08,1.08,0,0,0-.45.1h0L78.3,18l-.14.05a.55.55,0,0,1-.11-.1h0l-1.24-2.81a.41.41,0,0,1,0-.12s.05,0,.14-.07L84.69,14a1,1,0,0,0,.7-.34,1.08,1.08,0,0,0,.21-.81v0l-.36-2.37A1,1,0,0,0,85,9.8a1,1,0,0,0-.72-.32h-.08L69.74,10.92h0a.13.13,0,0,1-.12-.05l0,0a.42.42,0,0,1,0-.13c.13-.37.25-.74.39-1.12.31-.94.59-1.76.85-2.51,0-.1.11-.1.14-.1H85a1,1,0,0,0,1-.91V3.26a1,1,0,0,0-.2-.62A1,1,0,0,0,85,2.23H72.67l.23-.61s0-.05,0-.07a1.15,1.15,0,0,0-.11-.87A1,1,0,0,0,72.06.2H68.62a1,1,0,0,0-.94.69v0l-1.39,4a1,1,0,0,0-.64-.22h-5a.16.16,0,0,1-.1-.08L59.45,1.07a1,1,0,0,0-.88-.72H55.32l-.13,0a1,1,0,0,0-.6.37,1.08,1.08,0,0,0-.19.89v0l.24.84c.17.63.36,1.27.59,2,0,0,0,0,0,0a.16.16,0,0,1,0,0v0a.15.15,0,0,1-.13.15H50.43a1,1,0,0,0-1,1V8.45a1,1,0,0,0,.35.77,1,1,0,0,0,.65.25h1.91a.21.21,0,0,1,.11,0,1.06,1.06,0,0,1,0,.14L50.74,35.87a1.09,1.09,0,0,0,.31.82,0,0,0,0,0,0,0,1.14,1.14,0,0,0,.65.26h3.13a1,1,0,0,0,1-1l0-.58c0-.11,0-.22,0-.32l.72,1.34a1,1,0,0,0,.84.54h6.37a.94.94,0,0,0,1-1V14.46h1.41a.2.2,0,0,1,.14.06.19.19,0,0,0,0,.07V32.07l-.51.26,0,0a1,1,0,0,0-.35.33,1.23,1.23,0,0,0-.17.54v.07h0v2.82a.28.28,0,0,0,0,.09,1,1,0,0,0,.47.76,1,1,0,0,0,.52.14,1,1,0,0,0,.41-.09h0l9.77-4.75a0,0,0,0,0,0,0,1,1,0,0,0,.53-.84V28.25a1.14,1.14,0,0,0-.37-.75h0a1,1,0,0,0-.62-.22,1.1,1.1,0,0,0-.36.07l0,0-.07,0h0l-.15.08c-.81.42-1.86,1-3.12,1.65l-.61.33h0l0,0H71.6a.08.08,0,0,1-.06,0,.24.24,0,0,1-.08-.13h0V16.22c0-.13.08-.14.14-.16h0s.08,0,.15.12,0,0,0,0l9.79,20.2h0a1,1,0,0,0,.9.58h3.46a1,1,0,0,0,.77-.43,1.07,1.07,0,0,0,.1-1S86.78,35.51,86.77,35.49Zm-27-18.85V32.06a.14.14,0,0,1-.12.14h-3.5c0-.87.11-1.88.18-2.93.09-1.57.18-3.18.28-4.52.21-2.85.41-5.59.58-8.14a.13.13,0,0,1,0-.07h0a.24.24,0,0,1,.12,0h2.28a.12.12,0,0,1,.12.08l0,.07ZM64,11.58a.23.23,0,0,1-.15.15H57.57a.16.16,0,0,1-.1-.08v0a0,0,0,0,1,0,0v0h0a.06.06,0,0,1,0,0s0,0,0-.08c0-.21,0-.44.06-.68,0-.4.07-.76.09-1.1V9.62h0v0a0,0,0,0,1,0,0h0a.2.2,0,0,1,.09-.06H64.7Z"/></g></g></svg>